<?xml version="1.0" encoding="iso-8859-1"?>
<!-- Generator: Adobe Illustrator 19.0.0, SVG Export Plug-In . SVG Version: 6.00 Build 0)  -->
<svg version="1.1" id="Capa_1" xmlns="http://www.w3.org/2000/svg" xmlns:xlink="http://www.w3.org/1999/xlink" x="0px" y="0px"
	 viewBox="0 0 489.133 489.133" style="enable-background:new 0 0 489.133 489.133;" xml:space="preserve">
<g>
	<path d="M450.192,12.16c-38.5-23.7-88.7-11.7-112.4,26.8s-11.7,88.7,26.4,112.4c5.8,3.5,11.7,6.2,17.9,8.2l-52.1,161.4
		c-24.5-12.8-52.5-12.1-75.4,0l-84.4-127.9c3.1-3.9,5.4-8.2,7.4-12.8c11.3-27.2-1.6-58.3-28.8-69.6s-58.3,1.6-69.6,28.8
		c-10.9,26.4,1.2,56.8,27.2,68.4l-63.7,190.4c-17.9,1.2-34.2,13.2-40.1,31.1c-7.8,24.1,5.1,49.8,29.2,57.5
		c24.1,7.8,49.8-5.1,57.5-29.2c7.4-22.6-3.9-46.7-25.3-56l63.4-189.4c8.9,0,18.3-1.9,26.1-6.2l83.2,127.5
		c-5.1,4.7-9.7,10.5-13.6,16.7c-23.7,38.1-11.7,88.3,26.4,112s88.3,11.7,112-26.4c20.6-33.4,14.4-75.8-13.2-101.9l55.2-170.7
		c28.4,1.2,56.8-12.4,73.1-38.5C500.392,86.36,488.292,35.86,450.192,12.16z"/>
</g>
<g>
</g>
<g>
</g>
<g>
</g>
<g>
</g>
<g>
</g>
<g>
</g>
<g>
</g>
<g>
</g>
<g>
</g>
<g>
</g>
<g>
</g>
<g>
</g>
<g>
</g>
<g>
</g>
<g>
</g>
</svg>
