<?xml version="1.0" encoding="iso-8859-1"?>
<!-- Generator: Adobe Illustrator 19.0.0, SVG Export Plug-In . SVG Version: 6.00 Build 0)  -->
<svg version="1.1" id="Capa_1" xmlns="http://www.w3.org/2000/svg" xmlns:xlink="http://www.w3.org/1999/xlink" x="0px" y="0px"
	 viewBox="0 0 489.33 489.33" style="enable-background:new 0 0 489.33 489.33;" xml:space="preserve">
<g>
	<g>
		<path d="M482.6,69.171l-44.8-17l-17-44.8c-2.6-6.9-11.5-8.9-16.8-3.6l-59.8,59.4c-2.7,2.7-3.9,7-2.3,10.9l16.3,43.5l-176.4,176.3
			c-3.9,3.9-3.9,10.2-0.1,14.1l0,0c3.9,4,10.3,4.1,14.3,0.1l177-176.6l43.8,16.5c3.4,1.3,7.3,0.5,9.9-2.1l59.7-59.5
			C491.6,80.971,489.6,71.871,482.6,69.171z"/>
		<path d="M302.6,231.271c12,20,19,43.4,19,68.4c0,73.3-59.4,132.8-132.8,132.8s-132.7-59.5-132.7-132.8s59.4-132.8,132.8-132.8
			c25.8,0,49.8,7.3,70.2,20l40.5-40.5c-31.1-22.5-69.3-35.8-110.6-35.8c-104.4,0-189,84.6-189,189s84.6,189,189,189
			s189-84.6,189-189c0-40.6-12.8-78.1-34.5-108.9L302.6,231.271z"/>
		<path d="M188.8,235.871c6.4,0,12.6,1,18.5,2.7l37.1-37.1c-16.4-9.3-35.4-14.6-55.6-14.6c-62.2,0-112.7,50.5-112.7,112.8
			s50.5,112.8,112.8,112.8s112.7-50.5,112.7-112.8c0-19.5-4.9-37.8-13.6-53.8l-37.5,37.4c1.4,5.2,2.1,10.7,2.1,16.3
			c0,35.2-28.5,63.8-63.8,63.8s-63.8-28.5-63.8-63.8C125.1,264.471,153.6,235.871,188.8,235.871z"/>
	</g>
</g>
<g>
</g>
<g>
</g>
<g>
</g>
<g>
</g>
<g>
</g>
<g>
</g>
<g>
</g>
<g>
</g>
<g>
</g>
<g>
</g>
<g>
</g>
<g>
</g>
<g>
</g>
<g>
</g>
<g>
</g>
</svg>
